<svg width="424" height="114" xmlns="http://www.w3.org/2000/svg">

 <g>
  <title>Layer 1</title>
  <path stroke-width="3" id="svg_1" d="m11.37626,1.20862l398.99998,1.02835" opacity="undefined" stroke-linecap="undefined" stroke-linejoin="undefined" stroke="#1d7cb1" fill="none"/>
  <line stroke-width="3" stroke="#1d7cb1" stroke-linecap="undefined" stroke-linejoin="undefined" id="svg_4" y2="112.57029" x2="413.87625" y1="111.54194" x1="14.87627" fill="none"/>
  <path id="svg_7" d="m0,182.54052" opacity="NaN" stroke="#000" fill="none"/>
  <path stroke-width="3" id="svg_14" d="m12.70814,1.70762c-26.6666,55.8332 2.49999,109.99974 1.66764,109.16712" opacity="NaN" stroke="#1d7cb1" fill="none"/>
  <ellipse stroke-width="3" stroke="#1d7cb1" ry="54.99987" rx="11.66664" id="svg_16" cy="57.54082" cx="411.04053" fill="none"/>
  <path stroke-width="3" stroke="#1d7cb1" id="svg_21" d="m1.87484,45.87418c26.58964,43.67083 65.98169,67.80471 64.99805,66.65644" opacity="NaN" fill="none"/>
  <path id="svg_24" d="m408.54054,113.16569" opacity="NaN" stroke="#1d7cb1" fill="none"/>
  <path stroke-width="3" id="svg_25" d="m409.37387,112.54069c-72.49983,-49.99988 -83.33314,-109.16641 -84.16549,-109.99903" opacity="NaN" stroke="#1d7cb1" fill="none"/>
  <path stroke-width="3" id="svg_26" d="m324.37406,113.37402c-72.49982,-49.99988 -83.33313,-109.16641 -84.16549,-109.99903" opacity="NaN" stroke="#1d7cb1" fill="none"/>
  <path stroke-width="3" id="svg_27" d="m238.54093,112.54069c-72.49982,-49.99988 -83.33313,-109.16641 -84.16549,-109.99903" opacity="NaN" stroke="#1d7cb1" fill="none"/>
  <path stroke-width="3" id="svg_28" d="m151.04114,110.87403c-72.49982,-49.99988 -83.33313,-109.16641 -84.16549,-109.99903" opacity="NaN" stroke="#1d7cb1" fill="none"/>
 </g>
</svg>
